<svg xmlns="http://www.w3.org/2000/svg" viewBox="0 0 185.87 78.37"><defs><style>.cls-1{fill:#f5cb5c;}</style></defs><g id="Layer_2" data-name="Layer 2"><g id="Layer_1-2" data-name="Layer 1"><path d="M172.43,35.86a0,0,0,0,0,0,.07l.15.2a2.82,2.82,0,0,0,.36.33,2.43,2.43,0,0,0,.25.2,1.26,1.26,0,0,0,.56.23.76.76,0,0,0,.6-.14l.12-.1,0,0,.07-.07c0-.05.05-.09.07-.14a.78.78,0,0,0,0-.6,1.9,1.9,0,0,0-.43-.72,3.79,3.79,0,0,0-.54-.45c-.06,0-.11-.06-.17,0a.17.17,0,0,1-.16-.06,1.88,1.88,0,0,1-.39-.5l-.18-.36a1.75,1.75,0,0,0-.35-.47,1.41,1.41,0,0,0-.37-.25,4.24,4.24,0,0,0-1.09-.42,5,5,0,0,0-.86-.14,2.16,2.16,0,0,0-.44,0,.73.73,0,0,0-.31.17l0,0-.05,0-.06.1a.71.71,0,0,0-.05.29,1.65,1.65,0,0,0,.18.62,3.2,3.2,0,0,0,.6.77,2.12,2.12,0,0,0,1.43.61,1.6,1.6,0,0,1,.53.14,1.21,1.21,0,0,1,.42.32l.13.14a.08.08,0,0,1,0,.08A.49.49,0,0,0,172.43,35.86Z"/><path d="M19.14,30.7s0,0,.06,0l.25,0a2.47,2.47,0,0,0,.46-.15l.3-.13a1.3,1.3,0,0,0,.46-.38.77.77,0,0,0,.16-.6.9.9,0,0,0,0-.16v0l0-.1L20.67,29a.82.82,0,0,0-.52-.3,1.94,1.94,0,0,0-.83.05,2.7,2.7,0,0,0-.66.27c-.06,0-.1.06-.11.12a.18.18,0,0,1-.13.12,2.32,2.32,0,0,1-.63.11l-.4,0a2.19,2.19,0,0,0-.57.09,1.39,1.39,0,0,0-.4.21,5,5,0,0,0-.89.77,5.67,5.67,0,0,0-.52.69,2.09,2.09,0,0,0-.19.4.63.63,0,0,0,0,.36.08.08,0,0,0,0,0l0,.06.06.1a.58.58,0,0,0,.23.18,1.37,1.37,0,0,0,.63.13,3.12,3.12,0,0,0,1-.16,2.2,2.2,0,0,0,1.22-1,1.72,1.72,0,0,1,.36-.4,1.3,1.3,0,0,1,.49-.23l.18,0a.07.07,0,0,1,.08,0Z"/><polygon class="cls-1" points="12.6 53.69 26.26 53.69 41.57 11.62 49.7 11.62 53.53 1.08 23.62 1.08 19.78 11.62 27.91 11.62 12.6 53.69"/><path class="cls-1" d="M51.14,53.69,59.77,30c1.88,0,2.92.34,3.12,1s-.21,2.42-1.24,5.23L55.29,53.69H68L73,39.82A54.77,54.77,0,0,0,75.53,32a5.6,5.6,0,0,0-.61-3.1q-.78-1.7-4.47-2.7,4.64-.42,6.93-2.54c1.53-1.4,3-4.16,4.53-8.25q2.45-6.73,1.41-9.8a5.51,5.51,0,0,0-4.19-3.82Q76,1.08,66.3,1.08H56.62L37.48,53.69ZM67,10.05c1.58,0,2.57.26,3,.78s.3,1.62-.31,3.3l-1,2.9c-.85,2.32-1.66,3.7-2.43,4.12a7.29,7.29,0,0,1-3.46.64Z"/><path class="cls-1" d="M84.36,53.69l4.25-9.45h4.87l-2.71,9.45h14L116,1.08H96.32L70.2,53.69Zm18.12-40.9q-3.77,13.2-6,22.12H91.82Q94.94,27.94,102.48,12.79Z"/><path class="cls-1" d="M146,34.62l.75-2.06H133.07l-2.41,6.62a25,25,0,0,1-2.48,5.51,2.91,2.91,0,0,1-2.44,1.17c-1.06,0-1.61-.38-1.63-1.16a18.31,18.31,0,0,1,1.36-5l8.88-24.4a23.76,23.76,0,0,1,2.35-5.19,3,3,0,0,1,2.59-1.2c1,0,1.53.33,1.59,1s-.4,2.31-1.37,5L136.2,24h13.66l1.82-5q2.67-7.35,2.7-10.83a6.94,6.94,0,0,0-3-5.81Q148.26,0,142.21,0a23.46,23.46,0,0,0-8.43,1.51,21.35,21.35,0,0,0-6.86,4.14,19,19,0,0,0-4.32,5.47,86.63,86.63,0,0,0-3.49,8.52L113.52,35q-2.8,7.72-3,11.57a6.68,6.68,0,0,0,3,6q3.11,2.17,9.11,2.17a22.49,22.49,0,0,0,10.67-2.57,20.08,20.08,0,0,0,7.28-6Q143,42.79,146,34.62Z"/><polygon class="cls-1" points="163.06 1.08 143.91 53.69 167.63 53.69 171.46 43.16 161.41 43.16 165.61 31.6 174.16 31.6 177.8 21.61 169.25 21.61 172.89 11.62 182.04 11.62 185.87 1.08 163.06 1.08"/><path d="M3.44,40.57l-.24-.19A14.57,14.57,0,0,0,.52,45.09l.29.09A14.08,14.08,0,0,1,3.44,40.57Z"/><path d="M.51,46.33l-.3-.06A10.21,10.21,0,0,0,0,48.33a10.32,10.32,0,0,0,.55,3.32l.28-.09A10.36,10.36,0,0,1,.3,48.33,9.64,9.64,0,0,1,.51,46.33Z"/><path d="M13.89,32.69l-.14-.27a48.63,48.63,0,0,0-4.66,2.79l.17.25A46.06,46.06,0,0,1,13.89,32.69Z"/><path d="M10.17,62.16a54.26,54.26,0,0,0,4.73,2.67l.13-.27a51.12,51.12,0,0,1-4.7-2.65Z"/><path d="M16,65.36c1.55.74,3.23,1.47,5,2.17l.11-.28c-1.75-.69-3.41-1.42-5-2.16Z"/><path d="M1,52.78a16.34,16.34,0,0,0,3.07,4.47l.22-.2a16.15,16.15,0,0,1-3-4.39Z"/><path d="M4.91,58.11A31.13,31.13,0,0,0,9.16,61.5l.16-.25a31.16,31.16,0,0,1-4.2-3.35Z"/><path d="M8.1,35.9A29,29,0,0,0,4,39.47l.22.21a28.24,28.24,0,0,1,4.05-3.53Z"/><path d="M181.87,47a12,12,0,0,0-1.94-5l-.25.16a11.73,11.73,0,0,1,1.89,4.92Z"/><path d="M179,41.18l.24-.18a23.49,23.49,0,0,0-3.81-3.88l-.19.23A22.88,22.88,0,0,1,179,41.18Z"/><path d="M22.08,68c1.62.62,3.35,1.22,5.12,1.8l.09-.29c-1.77-.57-3.48-1.18-5.1-1.8Z"/><path d="M133.38,74.61l.05.3c1.8-.31,3.59-.65,5.33-1l-.06-.29C137,74,135.18,74.3,133.38,74.61Z"/><path d="M113.69,77.12l0,.3c1.81-.15,3.62-.32,5.4-.51l0-.3C117.3,76.8,115.49,77,113.69,77.12Z"/><path d="M152.7,70.1l.08.29c1.78-.55,3.51-1.12,5.16-1.71l-.11-.28C156.2,69,154.47,69.56,152.7,70.1Z"/><path d="M146.32,71.87l.08.29c1.79-.45,3.55-.93,5.23-1.43l-.09-.29C149.86,70.94,148.11,71.42,146.32,71.87Z"/><path d="M120.27,76.48l0,.29c1.8-.2,3.61-.42,5.38-.66l0-.3C123.89,76.05,122.08,76.27,120.27,76.48Z"/><path d="M126.84,75.64l0,.3c1.81-.25,3.61-.53,5.36-.83l-.05-.29C130.44,75.11,128.64,75.39,126.84,75.64Z"/><path d="M139.88,73.37l.06.29c1.8-.38,3.57-.78,5.29-1.2l-.07-.3C143.45,72.58,141.67,73,139.88,73.37Z"/><path d="M181.65,48.26v.07a10.75,10.75,0,0,1-1.33,5.09l.27.14A11.1,11.1,0,0,0,182,48.33v-.08Z"/><path d="M176.21,58.48l.2.22A20.39,20.39,0,0,0,180,54.6l-.25-.16A20.12,20.12,0,0,1,176.21,58.48Z"/><path d="M159,68l.11.28c1.76-.65,3.45-1.34,5-2L164,66C162.4,66.65,160.72,67.34,159,68Z"/><path d="M170.9,62.36l.16.26a38.35,38.35,0,0,0,4.44-3.13l-.2-.23A36.83,36.83,0,0,1,170.9,62.36Z"/><path d="M165.07,65.46l.12.27c1.73-.8,3.35-1.64,4.83-2.49l-.15-.26C168.4,63.82,166.79,64.66,165.07,65.46Z"/><path d="M100.47,77.9v.3c1.81-.06,3.63-.14,5.42-.24l0-.3C104.1,77.76,102.28,77.84,100.47,77.9Z"/><path d="M47.68,74.76c1.74.31,3.54.61,5.35.88l0-.3c-1.8-.27-3.6-.56-5.34-.88Z"/><path d="M54.22,75.82c1.76.26,3.57.5,5.38.72l0-.3c-1.8-.22-3.61-.46-5.37-.72Z"/><path d="M60.79,76.68c1.77.2,3.59.39,5.39.56l0-.3c-1.8-.17-3.61-.36-5.38-.56Z"/><path d="M107.08,77.6l0,.3c1.81-.11,3.63-.24,5.41-.38l0-.3C110.71,77.36,108.89,77.49,107.08,77.6Z"/><path d="M67.38,77.35c1.78.16,3.6.3,5.41.42l0-.3c-1.8-.12-3.62-.26-5.4-.42Z"/><path d="M41.17,73.48c1.73.37,3.52.73,5.32,1.06l.06-.29c-1.8-.33-3.59-.69-5.31-1.06Z"/><path d="M34.72,72c1.71.44,3.48.87,5.28,1.27l.06-.29c-1.79-.4-3.56-.83-5.26-1.27Z"/><path d="M93.85,78.05v.3c1.8,0,3.63,0,5.42-.11v-.3C97.48,78,95.66,78,93.85,78.05Z"/><path d="M28.35,70.13c1.67.53,3.42,1,5.21,1.51l.08-.29c-1.79-.48-3.54-1-5.2-1.51Z"/><path d="M80.61,78.17c1.79.07,3.61.12,5.42.15V78c-1.81,0-3.63-.08-5.42-.15Z"/><path d="M74,77.84c1.79.12,3.61.21,5.42.29v-.3c-1.8-.08-3.62-.17-5.41-.29Z"/><path d="M91,78.06c-1.25,0-2.5,0-3.74,0v.3c1.23,0,2.49,0,3.74,0h1.68v-.3Z"/></g></g></svg>