<svg xmlns="http://www.w3.org/2000/svg" viewBox="0 0 376.93 158.92"><defs><style>.cls-1{fill:#f5cb5c;}</style></defs><g id="Layer_2" data-name="Layer 2"><g id="Layer_1-2" data-name="Layer 1"><path d="M349.67,72.72a.14.14,0,0,0,0,.14c.11.13.2.27.31.4a5.79,5.79,0,0,0,.72.68,5.08,5.08,0,0,0,.51.41,2.75,2.75,0,0,0,1.13.47,1.6,1.6,0,0,0,1.22-.28,1.71,1.71,0,0,0,.25-.22l0,0,.14-.16a2.29,2.29,0,0,0,.14-.27,1.61,1.61,0,0,0,0-1.22,3.78,3.78,0,0,0-.87-1.45,6.88,6.88,0,0,0-1.1-.92.45.45,0,0,0-.33-.09.34.34,0,0,1-.34-.12,3.93,3.93,0,0,1-.79-1c-.13-.24-.23-.49-.36-.72a3.83,3.83,0,0,0-.7-.95,3.2,3.2,0,0,0-.75-.51,9.41,9.41,0,0,0-2.23-.85,9.28,9.28,0,0,0-1.74-.28,3.71,3.71,0,0,0-.88,0,1.23,1.23,0,0,0-.64.35l-.06,0-.09.11-.12.21a1.05,1.05,0,0,0-.1.58,2.82,2.82,0,0,0,.36,1.26,6.44,6.44,0,0,0,1.2,1.55,4.44,4.44,0,0,0,2.92,1.25,3.52,3.52,0,0,1,1.06.27,2.27,2.27,0,0,1,.87.66l.24.28a.14.14,0,0,1,0,.16Z"/><path d="M38.81,62.25a.15.15,0,0,0,.14.06c.16,0,.33-.05.49-.09a4.93,4.93,0,0,0,.94-.31,6.39,6.39,0,0,0,.6-.26,2.86,2.86,0,0,0,1-.78,1.65,1.65,0,0,0,.32-1.21c0-.11,0-.21-.07-.32a.09.09,0,0,0,0-.05l-.08-.19a1.45,1.45,0,0,0-.17-.26,1.61,1.61,0,0,0-1.06-.61,3.72,3.72,0,0,0-1.69.09,7.27,7.27,0,0,0-1.33.54.41.41,0,0,0-.23.25.34.34,0,0,1-.26.24,3.73,3.73,0,0,1-1.27.22l-.81,0a3.86,3.86,0,0,0-1.17.18,3,3,0,0,0-.81.42,9.5,9.5,0,0,0-1.79,1.56,10.39,10.39,0,0,0-1.06,1.41,3.91,3.91,0,0,0-.38.8,1.21,1.21,0,0,0,0,.73s0,0,0,.08l.05.12.12.21a1.19,1.19,0,0,0,.47.36,2.84,2.84,0,0,0,1.28.27A6.37,6.37,0,0,0,34,65.36a4.39,4.39,0,0,0,2.47-2,3.35,3.35,0,0,1,.74-.81,2.33,2.33,0,0,1,1-.46l.37-.08a.12.12,0,0,1,.15,0C38.71,62.13,38.77,62.19,38.81,62.25Z"/><polygon class="cls-1" points="25.54 108.88 53.25 108.88 84.31 23.56 100.78 23.56 108.56 2.2 47.89 2.2 40.12 23.56 56.6 23.56 25.54 108.88"/><path class="cls-1" d="M103.71,108.88l17.5-48.09q5.73,0,6.33,2T125,73.44l-12.9,35.44h25.76l10.24-28.13q4.69-12.91,5.05-15.78a11.64,11.64,0,0,0-1.24-6.29q-1.58-3.42-9.07-5.47,9.4-.85,14-5.14t9.19-16.74q5-13.65,2.86-19.87a11.19,11.19,0,0,0-8.51-7.75q-6.39-1.51-26-1.51H114.83L76,108.88Zm32.21-88.5q4.8,0,6,1.59c.82,1.06.62,3.29-.62,6.68l-2.14,5.88c-1.71,4.72-3.36,7.51-4.92,8.37s-3.9,1.29-7,1.29Z"/><path class="cls-1" d="M171.08,108.88l8.61-19.16h9.88l-5.49,19.16h28.35L235.3,2.2h-40L142.37,108.88Zm36.75-82.95q-7.65,26.78-12.2,44.87h-9.42Q192.52,56.66,207.83,25.93Z"/><path class="cls-1" d="M296.05,70.2,297.56,66H269.85L265,79.46q-3.21,8.79-5,11.17A5.89,5.89,0,0,1,255,93c-2.16,0-3.26-.79-3.31-2.37s.88-5,2.76-10.13l18-49.48q3-8.1,4.76-10.53a6.16,6.16,0,0,1,5.26-2.43c2,0,3.1.66,3.21,2s-.81,4.68-2.76,10.06l-6.72,18.46h27.7l3.68-10.11q5.43-14.89,5.49-22T306.9,4.73Q300.65,0,288.39,0A47.81,47.81,0,0,0,271.3,3.06a43.23,43.23,0,0,0-13.92,8.4,38.41,38.41,0,0,0-8.75,11.09,176.89,176.89,0,0,0-7.08,17.28L230.21,71q-5.7,15.67-6,23.47a13.49,13.49,0,0,0,6,12.22q6.3,4.41,18.49,4.41a45.65,45.65,0,0,0,21.62-5.22q9.92-5.22,14.77-12.15T296.05,70.2Z"/><polygon class="cls-1" points="330.67 2.2 291.84 108.88 339.94 108.88 347.71 87.52 327.33 87.52 335.86 64.08 353.19 64.08 360.56 43.82 343.23 43.82 350.61 23.56 369.16 23.56 376.94 2.2 330.67 2.2"/><path d="M7,82.28l-.47-.39a29.44,29.44,0,0,0-5.45,9.55l.58.19A28.78,28.78,0,0,1,7,82.28Z"/><path d="M1,94l-.59-.12A20.38,20.38,0,0,0,0,98a21.3,21.3,0,0,0,1.11,6.74l.58-.2A20.33,20.33,0,0,1,1,94Z"/><path d="M28.17,66.29l-.29-.54a99.15,99.15,0,0,0-9.45,5.65l.34.5A100.21,100.21,0,0,1,28.17,66.29Z"/><path d="M20.61,126.07c2.9,1.84,6.13,3.66,9.6,5.4l.27-.55a109.23,109.23,0,0,1-9.54-5.37Z"/><path d="M32.41,132.55c3.14,1.51,6.54,3,10.09,4.39l.22-.56c-3.53-1.41-6.92-2.88-10-4.38Z"/><path d="M2,107a33.52,33.52,0,0,0,6.23,9.06l.45-.41a32.72,32.72,0,0,1-6.12-8.9Z"/><path d="M10,117.85a64.19,64.19,0,0,0,8.61,6.87l.34-.5a64.61,64.61,0,0,1-8.53-6.81Z"/><path d="M16.42,72.81a57.11,57.11,0,0,0-8.3,7.24l.44.41a57.12,57.12,0,0,1,8.22-7.16Z"/><path d="M368.83,95.39a24.57,24.57,0,0,0-3.93-10.24l-.51.33a24,24,0,0,1,3.83,10Z"/><path d="M363,83.51l.49-.37a47.41,47.41,0,0,0-7.72-7.86l-.39.47A46.57,46.57,0,0,1,363,83.51Z"/><path d="M44.78,137.83c3.29,1.26,6.78,2.49,10.38,3.65l.19-.58c-3.59-1.16-7.07-2.38-10.36-3.64Z"/><path d="M270.48,151.31l.11.6c3.65-.63,7.29-1.32,10.81-2l-.13-.59C277.76,150,274.13,150.68,270.48,151.31Z"/><path d="M230.55,156.4l0,.61c3.67-.31,7.35-.66,11-1l-.07-.61C237.89,155.74,234.21,156.09,230.55,156.4Z"/><path d="M309.66,142.16l.18.58c3.6-1.1,7.12-2.26,10.45-3.45l-.21-.58C316.76,139.9,313.26,141.06,309.66,142.16Z"/><path d="M296.74,145.76l.15.59c3.62-.92,7.19-1.9,10.61-2.91l-.18-.58C303.92,143.86,300.36,144.84,296.74,145.76Z"/><path d="M243.91,155.09l.07.6c3.66-.41,7.33-.86,10.91-1.35l-.08-.6C251.23,154.22,247.57,154.68,243.91,155.09Z"/><path d="M257.22,153.4l.09.61c3.66-.52,7.32-1.09,10.87-1.68l-.1-.61C264.53,152.32,260.88,152.88,257.22,153.4Z"/><path d="M283.66,148.78l.13.6c3.64-.77,7.25-1.59,10.72-2.44l-.14-.59C290.9,147.2,287.3,148,283.66,148.78Z"/><path d="M368.39,97.86V98a22,22,0,0,1-2.7,10.32l.54.28A22.52,22.52,0,0,0,369,98v-.15Z"/><path d="M357.35,118.59l.41.45a41.47,41.47,0,0,0,7.23-8.3l-.52-.33A40.83,40.83,0,0,1,357.35,118.59Z"/><path d="M322.37,137.88l.21.57c3.57-1.33,7-2.72,10.2-4.14l-.25-.56C329.34,135.17,325.92,136.55,322.37,137.88Z"/><path d="M346.58,126.47l.32.52a77.08,77.08,0,0,0,9-6.35l-.39-.47A75.88,75.88,0,0,1,346.58,126.47Z"/><path d="M334.75,132.74l.26.55c3.5-1.62,6.79-3.32,9.78-5l-.3-.53C341.51,129.43,338.23,131.12,334.75,132.74Z"/><path d="M203.75,158l0,.61c3.67-.12,7.36-.28,11-.48l0-.61C211.1,157.7,207.41,157.86,203.75,158Z"/><path d="M96.69,151.61c3.54.63,7.19,1.23,10.85,1.79l.09-.61c-3.65-.55-7.3-1.15-10.84-1.78Z"/><path d="M110,153.76c3.57.52,7.23,1,10.9,1.45l.07-.61c-3.66-.44-7.32-.93-10.89-1.45Z"/><path d="M123.28,155.5c3.6.41,7.28.8,10.94,1.14l.06-.61c-3.66-.34-7.34-.72-10.93-1.14Z"/><path d="M217.16,157.36l0,.61c3.66-.22,7.35-.47,11-.76l0-.61C224.51,156.89,220.82,157.15,217.16,157.36Z"/><path d="M136.65,156.86c3.61.32,7.3.6,11,.85l0-.61c-3.66-.25-7.35-.53-10.95-.85Z"/><path d="M83.5,149c3.5.76,7.13,1.49,10.78,2.16l.11-.6c-3.64-.67-7.26-1.4-10.76-2.15Z"/><path d="M70.42,145.91c3.45.9,7,1.77,10.69,2.58l.13-.6c-3.63-.81-7.22-1.67-10.67-2.57Z"/><path d="M190.33,158.28v.61c3.66,0,7.36-.11,11-.22l0-.61C197.68,158.17,194,158.24,190.33,158.28Z"/><path d="M57.49,142.22c3.39,1.07,6.94,2.1,10.56,3.07l.16-.59c-3.61-1-7.16-2-10.54-3.06Z"/><path d="M163.48,158.53c3.63.14,7.32.24,11,.3v-.61c-3.66-.06-7.36-.16-11-.3Z"/><path d="M150.05,157.86c3.63.23,7.32.42,11,.58l0-.61c-3.66-.16-7.35-.35-11-.57Z"/><path d="M184.5,158.31c-2.52,0-5.07,0-7.58-.05v.61c2.51,0,5.07,0,7.59,0h3.4v-.61Z"/></g></g></svg>